PathFileType	4	(X/Y/Z)	test111.trc
DataRate	CameraRate	NumFrames	NumMarkers	Units	OrigDataRate	OrigDataStartFrame	OrigNumFrames
120	120	9	27	m	120	253	1010
Frame#	Time	RHip			RKnee			RAnkle			RBigToe			RSmallToe			RHeel			LHip			LKnee			LAnkle			LBigToe			LSmallToe			LHeel			Nose			REye			LEye			RShoulder			RElbow			RWrist			RThumb			RIndex			RPinky			LShoulder			LElbow			LWrist			LThumb			LIndex			LPinky		
		X	Y	Z	X	Y	Z	X	Y	Z	X	Y	Z	X	Y	Z	X	Y	Z	X	Y	Z	X	Y	Z	X	Y	Z	X	Y	Z	X	Y	Z	X	Y	Z	X	Y	Z	X	Y	Z	X	Y	Z	X	Y	Z	X	Y	Z	X	Y	Z	X	Y	Z	X	Y	Z	X	Y	Z	X	Y	Z	X	Y	Z	X	Y	Z	X	Y	Z	X	Y	Z	X	Y	Z
253	2.1083333333333334	0.031	0.196	0.908	0.0	0.216	0.481	-0.038	0.259	0.085	-0.048	0.053	0.012	-0.084	0.098	0.02	-0.033	0.302	0.022	0.26	0.198	0.908	0.276	0.212	0.478	0.3	0.28	0.076	0.327	0.068	0.017	0.351	0.118	0.018	0.294	0.319	0.02	0.164	0.103	1.61	0.134	0.115	1.636	0.194	0.133	1.641	-0.027	0.227	1.471	-0.167	0.188	1.703	-0.264	0.149	1.919	-0.263	0.121	1.983	-0.288	0.133	2.01	-0.33	0.16	1.989	0.32	0.252	1.469	0.436	0.217	1.699	0.54	0.176	1.924	0.531	0.132	1.984	0.552	0.146	2.021	0.595	0.181	2.006
254	2.1166666666666667	0.031	0.196	0.908	0.0	0.216	0.481	-0.038	0.259	0.085	-0.048	0.053	0.012	-0.084	0.097	0.02	-0.033	0.302	0.022	0.26	0.198	0.908	0.276	0.212	0.478	0.3	0.28	0.076	0.327	0.068	0.017	0.351	0.118	0.018	0.293	0.319	0.02	0.165	0.104	1.611	0.134	0.115	1.637	0.195	0.134	1.642	-0.027	0.227	1.471	-0.166	0.189	1.705	-0.261	0.149	1.921	-0.26	0.123	1.985	-0.285	0.135	2.012	-0.327	0.16	1.991	0.32	0.252	1.469	0.434	0.217	1.7	0.537	0.176	1.926	0.528	0.132	1.985	0.549	0.146	2.023	0.592	0.181	2.007
255	2.125	0.031	0.196	0.908	0.0	0.217	0.481	-0.038	0.26	0.085	-0.048	0.052	0.012	-0.084	0.097	0.02	-0.033	0.302	0.022	0.26	0.198	0.908	0.277	0.213	0.479	0.3	0.28	0.077	0.327	0.068	0.017	0.351	0.118	0.018	0.293	0.319	0.02	0.165	0.104	1.611	0.134	0.116	1.637	0.195	0.135	1.642	-0.027	0.227	1.471	-0.165	0.189	1.706	-0.259	0.15	1.923	-0.257	0.124	1.987	-0.281	0.136	2.014	-0.324	0.161	1.993	0.32	0.252	1.469	0.433	0.218	1.701	0.535	0.176	1.927	0.525	0.133	1.987	0.546	0.146	2.024	0.59	0.182	2.009
256	2.1333333333333333	0.031	0.196	0.908	0.0	0.217	0.481	-0.038	0.26	0.085	-0.048	0.052	0.012	-0.084	0.097	0.019	-0.033	0.302	0.022	0.26	0.198	0.908	0.277	0.213	0.479	0.3	0.28	0.077	0.327	0.068	0.017	0.351	0.118	0.018	0.293	0.32	0.02	0.165	0.105	1.612	0.133	0.116	1.637	0.195	0.136	1.643	-0.027	0.227	1.471	-0.163	0.189	1.707	-0.256	0.151	1.924	-0.254	0.125	1.988	-0.278	0.137	2.015	-0.321	0.161	1.995	0.32	0.252	1.47	0.432	0.218	1.702	0.532	0.177	1.929	0.523	0.133	1.989	0.543	0.147	2.026	0.587	0.182	2.01
257	2.1416666666666666	0.031	0.196	0.908	0.0	0.217	0.482	-0.038	0.26	0.085	-0.047	0.052	0.011	-0.084	0.097	0.019	-0.033	0.302	0.022	0.26	0.198	0.907	0.277	0.213	0.479	0.3	0.28	0.077	0.327	0.067	0.017	0.351	0.117	0.019	0.293	0.32	0.02	0.165	0.106	1.612	0.133	0.117	1.638	0.196	0.136	1.643	-0.027	0.227	1.471	-0.162	0.19	1.708	-0.254	0.152	1.926	-0.25	0.126	1.99	-0.275	0.138	2.017	-0.318	0.162	1.997	0.321	0.253	1.47	0.43	0.218	1.703	0.53	0.177	1.93	0.52	0.133	1.99	0.54	0.147	2.027	0.584	0.183	2.012
258	2.15	0.031	0.196	0.908	0.0	0.217	0.482	-0.038	0.26	0.085	-0.046	0.052	0.011	-0.084	0.097	0.019	-0.033	0.301	0.022	0.259	0.198	0.907	0.277	0.213	0.479	0.3	0.28	0.077	0.327	0.067	0.018	0.351	0.117	0.019	0.293	0.32	0.02	0.166	0.106	1.612	0.133	0.117	1.638	0.196	0.137	1.644	-0.027	0.227	1.472	-0.161	0.19	1.709	-0.252	0.153	1.928	-0.247	0.127	1.992	-0.271	0.138	2.019	-0.316	0.162	1.999	0.321	0.253	1.47	0.429	0.218	1.704	0.527	0.177	1.932	0.517	0.133	1.992	0.537	0.147	2.029	0.582	0.184	2.014
259	2.158333333333333	0.031	0.196	0.908	0.0	0.218	0.482	-0.038	0.26	0.085	-0.046	0.052	0.011	-0.083	0.097	0.019	-0.033	0.301	0.021	0.259	0.198	0.908	0.277	0.213	0.48	0.3	0.28	0.078	0.327	0.066	0.018	0.351	0.116	0.019	0.293	0.319	0.02	0.166	0.107	1.613	0.133	0.118	1.638	0.196	0.138	1.644	-0.028	0.227	1.472	-0.16	0.19	1.71	-0.249	0.153	1.93	-0.244	0.128	1.994	-0.268	0.138	2.021	-0.313	0.162	2.001	0.321	0.253	1.471	0.428	0.218	1.705	0.525	0.177	1.933	0.514	0.133	1.994	0.534	0.147	2.03	0.579	0.184	2.015
260	2.1666666666666665	0.031	0.196	0.908	0.0	0.218	0.483	-0.038	0.26	0.085	-0.045	0.052	0.011	-0.083	0.097	0.019	-0.033	0.301	0.021	0.259	0.198	0.908	0.277	0.213	0.48	0.3	0.279	0.078	0.327	0.065	0.018	0.351	0.115	0.019	0.293	0.319	0.02	0.166	0.107	1.613	0.132	0.118	1.638	0.197	0.138	1.645	-0.028	0.227	1.472	-0.159	0.19	1.712	-0.246	0.154	1.932	-0.241	0.129	1.996	-0.265	0.138	2.024	-0.31	0.162	2.003	0.321	0.253	1.471	0.427	0.218	1.706	0.522	0.177	1.935	0.511	0.133	1.995	0.53	0.147	2.031	0.577	0.184	2.017
261	2.175	0.031	0.196	0.908	0.0	0.218	0.483	-0.038	0.26	0.085	-0.044	0.052	0.011	-0.082	0.097	0.019	-0.033	0.301	0.021	0.259	0.198	0.908	0.277	0.213	0.48	0.3	0.279	0.078	0.327	0.065	0.018	0.352	0.114	0.02	0.293	0.319	0.02	0.166	0.108	1.613	0.132	0.119	1.639	0.197	0.139	1.645	-0.028	0.227	1.472	-0.157	0.19	1.713	-0.244	0.154	1.934	-0.238	0.129	1.998	-0.262	0.137	2.026	-0.308	0.162	2.004	0.321	0.253	1.471	0.426	0.219	1.707	0.52	0.177	1.936	0.508	0.133	1.997	0.527	0.147	2.033	0.575	0.185	2.018
